<?xml version="1.0" encoding="UTF-8"?>
<svg xmlns="http://www.w3.org/2000/svg" xmlns:xlink="http://www.w3.org/1999/xlink" id="Ebene_1" version="1.1" viewBox="0 0 120 120">
  <defs>
    <style>
      .st0 {
        fill: none;
      }

      .st1 {
        fill: #890C64;
      }

      .st2 {
        clip-path: url(#clippath);
      }
    </style>
    <clipPath id="clippath">
      <rect class="st0" y="0" width="120" height="120"></rect>
    </clipPath>
  </defs>
  <g class="st2">
    <g id="a">
      <g>
        <path class="st1" d="M90.372,16.61c-7.189,0-13.017,5.828-13.017,13.017s5.828,13.017,13.017,13.017,13.017-5.828,13.017-13.017-5.828-13.017-13.017-13.017h0ZM98.332,25.464l-8.939,8.921c-.079.08-.188.124-.3.123h-2.209c-.112,0-.22-.044-.3-.123l-4.176-4.177c-.165-.164-.165-.431,0-.595.08-.08.188-.124.301-.124h3.009c.113,0,.221.044.3.124l1.974,1.974,6.737-6.719c.08-.079.188-.124.3-.123h3.009c.232.001.42.191.419.423,0,.111-.045.217-.124.296Z"></path>
        <path class="st1" d="M99.623,42.321c-6.995,5.124-16.819,3.606-21.943-3.389-4.045-5.523-4.045-13.031,0-18.554-21.888-9.769-47.551.055-57.32,21.943s.055,47.551,21.943,57.32,47.551-.055,57.32-21.943c5.024-11.257,5.024-24.12,0-35.377ZM51.974,37.468c2.301.005,4.163,1.875,4.158,4.176-.005,2.301-1.875,4.163-4.176,4.158-2.298-.005-4.158-1.869-4.158-4.167.002-2.304,1.872-4.17,4.176-4.168h0ZM59.184,52.334v11.4c0,.608-.492,1.1-1.1,1.1h-2.314v15.9c0,.608-.492,1.1-1.1,1.1h-1.571c-.036,0-.073-.001-.109-.005h0c-.332-.04-.627-.23-.8-.516h-.358c-.2.324-.555.522-.936.522h-1.564c-.607.003-1.102-.487-1.105-1.095v-15.905h-2.31c-.607,0-1.1-.492-1.1-1.1v-13.311c.004-1.518,1.233-2.747,2.751-2.752h8.864c1.518.004,2.748,1.234,2.752,2.752v1.91ZM67.984,41.626h.009c.154-.033.309-.058.465-.074.053-.005.1-.008.157-.012h.055c.069,0,.138-.005.207-.005h0c.53,0,1.056.101,1.548.3l.088.035.083.038c.041.018.08.036.12.056l.067.034c.044.023.087.046.131.07l.057.032c.046.027.091.054.136.083l.048.031c.047.031.093.063.139.095l.04.028c.049.036.1.073.146.111l.027.021c.056.045.111.092.165.14h0c.056.051.11.1.164.155h0c.05.05.1.1.145.153.018.019.034.039.051.059s.057.067.085.1l.064.08.064.085c.023.031.046.063.068.095l.051.075c.024.035.047.072.069.108s.027.044.04.066c.024.04.047.08.07.122.009.016.018.033.026.049.113.212.207.434.281.662.007.02.014.04.02.06.013.044.025.087.038.132.008.028.015.056.022.083s.019.081.028.122.015.067.021.1.015.075.021.113.011.08.017.119.009.067.013.1c.005.05.009.1.013.149,0,.026,0,.051.006.077,0,.077.006.155.006.233s0,.155-.006.233c0,.025,0,.05-.006.074,0,.051-.008.1-.013.151,0,.034-.008.066-.012.1s-.011.081-.018.122-.012.074-.019.111-.014.068-.021.1-.018.08-.028.12l-.023.085c-.011.044-.024.087-.037.131-.007.02-.014.039-.02.06-.074.227-.167.447-.279.658l-.029.054c-.021.041-.044.079-.067.119l-.043.07c-.021.035-.044.07-.066.1l-.055.081-.063.09c-.023.031-.047.062-.071.093s-.037.049-.057.073c-.031.039-.064.077-.1.115l-.039.044c-.149.165-.311.318-.484.457l-.008.007c-.054.044-.11.086-.167.127l-.021.015c-.053.038-.106.074-.161.109l-.028.018c-.053.033-.106.065-.16.1l-.034.019c-.053.03-.106.058-.16.085l-.039.02c-.053.026-.106.051-.159.074l-.044.02c-.052.022-.1.043-.157.063-.138.052-.278.097-.42.135l-.026.007c-.06.015-.122.03-.184.043h-.02c-.063.013-.128.025-.192.034h-.014c-.066.01-.132.018-.2.025h-.01c-.067.007-.135.012-.2.015h-.425l-.108-.008-.1-.008c-.161-.016-.32-.042-.478-.077h0c-2.249-.489-3.677-2.708-3.188-4.958.347-1.595,1.593-2.842,3.188-3.188v.002ZM75.184,55.926v10.009c-.002.535-.436.967-.971.967h-.77c.531,4.821.565,4.612.381,4.817-.046.058-.108.1-.179.12-.05.018-.102.028-.155.028h-.07c-.219.01-.582,0-1.236,0v9c-.001.535-.436.969-.971.968h-1.372c-.362,0-.693-.201-.861-.521h-.219c-.168.32-.499.521-.861.521h-1.37c-.535,0-.969-.433-.97-.968v-9h-1.307c-.247,0-.447-.199-.448-.446,0-.03.003-.06.009-.09l.488-4.429h-.77c-.535,0-.969-.433-.97-.968v-11.68c.004-1.333,1.084-2.412,2.417-2.416h7.785c1.333.004,2.413,1.083,2.417,2.416l.003,1.672Z"></path>
      </g>
    </g>
  </g>
</svg>
