<?xml version="1.0" encoding="UTF-8"?>
<svg xmlns="http://www.w3.org/2000/svg" xmlns:xlink="http://www.w3.org/1999/xlink" width="120px" height="120px" viewBox="0 0 120 120" version="1.1">
  <title>Group 8</title>
  <defs>
    <polygon id="path-1" points="0 0 75 0 75 66 0 66"></polygon>
  </defs>
  <g id="Page-1" stroke="none" stroke-width="1" fill="none" fill-rule="evenodd">
    <g id="Allg-Kriterien" transform="translate(-164.000000, -147.000000)">
      <g id="Group-8" transform="translate(164.000000, 147.000000)">
        <g id="Group-3" transform="translate(22.000000, 27.000000)">
          <mask id="mask-2" fill="white">
            <use xlink:href="#path-1"></use>
          </mask>
          <g id="Clip-2"></g>
          <path d="M47.2269889,19.6450285 C47.2547406,19.3284113 47.5137568,19.0891076 47.8292016,19.085426 L58.2684791,19.085426 C58.4220387,19.0872668 58.5728231,19.1507743 58.6856802,19.2658242 C58.7994623,19.3799537 58.8605161,19.5318195 58.8577409,19.6919689 C58.8577409,19.7674416 58.84294,19.8447551 58.8114881,19.9165462 L56.1926494,26.1817017 L61.0963809,26.1817017 C61.2943433,26.1863037 61.498781,26.3123984 61.6042376,26.5056821 C61.7152446,26.7100107 61.7115443,26.9585184 61.5931369,27.1554838 L51.1705104,44.1276399 C51.0641288,44.2979137 50.8744919,44.4037596 50.6728293,44.4037596 L50.6709792,44.4037596 C50.3435087,44.3963964 50.0696916,44.109232 50.0780171,43.7659232 L50.6598785,33.8246944 L46.5396709,33.8246944 C46.3472589,33.8246944 46.1992497,33.7611869 46.0947181,33.650739 C45.9911117,33.5421319 45.9393084,33.3939477 45.9541093,33.2430023 L47.2269889,19.6450285 Z M74.2608788,58.9175303 L72.904744,58.9175303 L72.904744,46.2703286 L72.904744,5.09812354 C72.8936433,2.27157844 70.5819238,-0.0100904978 67.7410712,1.42108547e-14 L67.7327457,1.42108547e-14 L39.8422523,1.42108547e-14 C37.0310016,-0.0100904978 34.7424085,2.24948886 34.7313078,5.0465812 L34.7313078,5.09812354 L34.7313078,37.7474346 L32.3844361,37.7474346 L31.1013809,37.7474346 L28.991324,37.7474346 C24.0746417,37.7474346 20.0256636,41.8045531 20.0256636,46.6983141 L20.0256636,57.2055883 C20.0256636,60.8586516 17.0488275,63.8204953 13.3763479,63.8204953 C9.70386833,63.8204953 6.72795731,60.8586516 6.72795731,57.2055883 L6.72795731,33.623127 C6.72795731,33.5982762 6.78438584,33.5734255 6.78253572,33.5485747 C9.35604659,33.258649 11.4207757,31.0819056 11.4207757,28.4458831 L11.4207757,26.9060557 L11.4207757,26.5397369 L11.4207757,24.9198348 C11.3920989,24.2976451 10.882392,23.8052317 10.2561279,23.7923461 L9.38749856,23.7923461 L9.38749856,20.2119943 C9.38749856,19.6100534 8.89629285,19.122242 8.29223009,19.122242 C7.68724228,19.122242 7.19696163,19.6100534 7.19696163,20.2119943 L7.19696163,23.7923461 L4.22475084,23.7923461 L4.22475084,20.2119943 C4.22475084,19.6100534 3.73354513,19.122242 3.12948237,19.122242 C2.52449455,19.122242 2.0342139,19.6100534 2.0342139,20.2119943 L2.0342139,23.7923461 L1.10545585,23.7923461 C0.492142509,23.8089133 0.001861862,24.3086899 -7.10543075e-15,24.9198348 L-7.10543075e-15,26.5397369 L-7.10543075e-15,26.9060557 L-7.10543075e-15,28.4458831 C-0.00553860061,31.0533732 1.95650905,33.2485247 4.56054683,33.5476543 C4.55869671,33.5734255 4.53742038,33.5973558 4.53742038,33.6222066 L4.53742038,57.2055883 C4.53742038,62.0625334 8.49481776,66 13.3763479,66 C18.2588031,66 22.2162005,62.0625334 22.2162005,57.2055883 L22.2162005,46.6983141 C22.2162005,43.0075145 25.2818421,39.9269393 28.991324,39.9269393 L31.1013809,39.9269393 L32.3844361,39.9269393 L34.7313078,39.9269393 L34.7313078,46.2703286 L34.7220572,46.2703286 L34.7220572,58.9175303 L33.3760981,58.9175303 C32.9681476,58.9175303 32.6379019,59.2470331 32.6379019,59.6538494 L32.6379019,65.2636809 C32.6379019,65.6704972 32.9681476,66 33.3760981,66 L74.2608788,66 C74.6688293,66 75,65.6704972 75,65.2636809 L75,59.6538494 C75,59.2470331 74.6688293,58.9175303 74.2608788,58.9175303 L74.2608788,58.9175303 Z" id="Fill-1" fill="#890C64" mask="url(#mask-2)"></path>
        </g>
        <rect id="Rectangle" x="0" y="0" width="120" height="120"></rect>
      </g>
    </g>
  </g>
</svg>
