<?xml version="1.0" encoding="UTF-8"?>
<svg xmlns="http://www.w3.org/2000/svg" xmlns:xlink="http://www.w3.org/1999/xlink" width="120" height="120" viewBox="0 0 120 120">
  <defs>
    <clipPath id="clip-WH_Kinderbetreuung">
      <rect width="120" height="120"></rect>
    </clipPath>
  </defs>
  <g id="WH_Kinderbetreuung" clip-path="url(#clip-WH_Kinderbetreuung)">
    <g id="Gruppe_1" data-name="Gruppe 1" transform="translate(-427.072 -224.296)">
      <path id="Pfad_2" data-name="Pfad 2" d="M500.489,304.152h-4.354a.672.672,0,0,0-.67.672h0a.672.672,0,0,1,0-1.343V299.13a.67.67,0,0,0-.67-.672h-3.47a4.544,4.544,0,0,0-1.3-6.73c-.017-.012-.185-.122-.258-.159a6.152,6.152,0,0,0-.816-.425l-11.895-5.8-2.586-4.372,2.046-4.175a4.936,4.936,0,0,0-2.26-6.6l-6.482-3.176a4.935,4.935,0,0,0-6.6,2.26s-12.206,24.64-12.577,26.265c-.787,2.125-.022,6.057,2.828,8.447l8.343,7.051h-11.38a5.312,5.312,0,1,0,0,10.623h24.89c.07,0,.136-.018.205-.02a5.678,5.678,0,0,0,4.016-9.827L465.08,300.169l4.547-9.326.215.367A4.611,4.611,0,0,0,471.785,293c.563.274,10.7,5.261,13.835,6.7.034.018.8.362.89.385A4.388,4.388,0,0,0,489.1,300c.04-.013.082-.021.122-.036.073-.027.142-.064.213-.1.116-.047.229-.1.341-.154v3.765a.672.672,0,0,1,0,1.343v4.351a.671.671,0,0,0,.67.672h0a.67.67,0,0,0-.669.671v4.352a.671.671,0,0,1,0,1.342.671.671,0,0,0-.671-.671h-4.354a.671.671,0,0,0-.67.671v4.352a.671.671,0,0,0,.67.671H489.1a.67.67,0,1,1,1.34,0H494.8a.67.67,0,1,1,1.34,0h4.354a.671.671,0,0,0,.671-.671v-4.352a.671.671,0,0,1,0-1.342v-4.352a.672.672,0,0,1,0-1.343v-4.351A.671.671,0,0,0,500.489,304.152Z" fill="#890C64"></path>
      <path id="Pfad_3" data-name="Pfad 3" d="M472.6,266.017a9.332,9.332,0,1,0-4.294-12.476A9.336,9.336,0,0,0,472.6,266.017Z" fill="#890C64"></path>
      <path id="Pfad_4" data-name="Pfad 4" d="M529.546,315.031c-2.791-14.216-4.409-22.82-4.409-22.82a3.018,3.018,0,0,0-3.53-2.4l-4.2.8a3.019,3.019,0,0,0-2.4,3.531l.2,1.059-3.986,4.042-6.044-1.92a2.8,2.8,0,0,0-.853-.091l.7-1.525a.665.665,0,0,0,.019-.507.653.653,0,0,0-.346-.371l-3.905-1.79a.662.662,0,0,0-.878.327l-1.79,3.9a.658.658,0,0,0-.019.506.646.646,0,0,0,.346.372l3.15,1.444a2.774,2.774,0,0,0,1.875,3.088l7.687,2.441a2.81,2.81,0,0,0,2.852-.705l.126-.129-1.309,8.162-4.2,2.223a3.482,3.482,0,0,0,1.627,6.562h17.214a3.482,3.482,0,0,0,3.482-3.483A3.412,3.412,0,0,0,529.546,315.031Z" fill="#890C64"></path>
      <path id="Pfad_5" data-name="Pfad 5" d="M532.673,283.606a.615.615,0,0,0-.709-.133c-2.434,1.143-4.157-.634-5.261-.634a2.336,2.336,0,0,0-1.7.742.923.923,0,0,0-.6-.726l-.6-.209a5.706,5.706,0,1,0-.795,3.106l.343.119a.922.922,0,0,0,1.045-.329,2.342,2.342,0,0,0,2.311,1.992c3.425,0,5.253-1.716,6.063-3.213A.618.618,0,0,0,532.673,283.606Z" fill="#890C64"></path>
    </g>
  </g>
</svg>
