<?xml version="1.0" encoding="UTF-8"?>
<svg xmlns="http://www.w3.org/2000/svg" xmlns:xlink="http://www.w3.org/1999/xlink" width="120px" height="120px" viewBox="0 0 120 120" version="1.1">
  <title>Group</title>
  <defs>
    <polygon id="path-1" points="0.491907811 0.265 12.857967 0.265 12.857967 12.6310534 0.491907811 12.6310534"></polygon>
    <polygon id="path-3" points="0 0.742877943 75.103 0.742877943 75.103 69.9997389 0 69.9997389"></polygon>
  </defs>
  <g id="Page-1" stroke="none" stroke-width="1" fill="none" fill-rule="evenodd">
    <g id="Winter-Wuensche" transform="translate(-31.000000, -20.000000)">
      <g id="Group" transform="translate(31.000000, 20.000000)">
        <g id="Group-12">
          <rect id="Rectangle" x="0" y="0" width="120" height="120"></rect>
        </g>
        <g id="Group-7" transform="translate(22.000000, 19.000000)">
          <g id="Group-3" transform="translate(22.000000, 0.735200)">
            <mask id="mask-2" fill="white">
              <use xlink:href="#path-1"></use>
            </mask>
            <g id="Clip-2"></g>
            <path d="M5.2911,12.4725 C8.6181,13.2375 11.9361,11.1605 12.6991,7.8315 C13.4651,4.5035 11.3871,1.1875 8.0591,0.4235 C4.7311,-0.3415 1.4141,1.7365 0.6501,5.0645 C-0.1139,8.3915 1.9631,11.7085 5.2911,12.4725" id="Fill-1" fill="#383838" mask="url(#mask-2)"></path>
          </g>
          <g id="Group-6" transform="translate(0.000000, 12.735200)">
            <mask id="mask-4" fill="white">
              <use xlink:href="#path-3"></use>
            </mask>
            <g id="Clip-5"></g>
            <path d="M75.0684,50.9647 C74.9244,50.4297 74.3754,50.1107 73.8394,50.2557 L41.2504,58.9867 C41.8904,58.0437 42.1464,56.8487 41.8284,55.6607 C41.8044,55.5717 41.7614,55.4937 41.7314,55.4067 C41.6994,55.3077 41.6724,55.2067 41.6314,55.1087 L35.6814,40.9527 C36.6704,38.6857 38.6714,35.1367 41.4154,32.9587 L42.7734,32.4237 C42.8084,32.4117 42.8414,32.3957 42.8774,32.3827 L46.6014,30.9137 C48.2854,30.2497 49.1194,28.3297 48.4554,26.6467 L47.2364,23.5557 L69.0454,28.5567 C69.4454,28.6497 69.8434,28.4007 69.9354,28.0007 C70.0264,27.6037 69.7774,27.2057 69.3774,27.1127 L46.5784,21.8867 L39.0624,2.8247 C38.3984,1.1417 36.4774,0.3077 34.7954,0.9707 L28.1324,3.5977 C26.5974,4.2027 25.7834,5.8517 26.1514,7.4137 C24.8424,9.1697 23.5334,10.9277 22.2244,12.6837 C21.1564,12.5527 20.0894,12.4197 19.0204,12.2887 L13.3924,11.5697 C11.5974,11.3407 9.9414,12.6217 9.7124,14.4177 C9.7034,14.4897 9.7114,14.5597 9.7074,14.6317 C9.5154,15.8177 9.9874,17.0297 11.2764,17.6447 C11.6584,17.8767 12.0894,18.0377 12.5594,18.0977 L24.9134,19.6747 C25.1404,19.7117 25.3604,19.7287 25.5704,19.7107 C26.2914,19.6967 26.9704,19.4587 27.5184,19.0367 L30.9984,19.8347 L34.1424,27.8097 C34.1934,27.9747 34.2454,28.1327 34.2954,28.2987 C34.3034,28.3287 34.3164,28.3577 34.3244,28.3847 C29.6644,33.1557 27.5414,39.3537 27.4174,39.7237 C27.1044,40.6617 27.1444,41.6817 27.5274,42.5917 L34.1174,58.2637 C34.2544,58.5917 34.4414,58.8817 34.6504,59.1507 C34.6754,59.1837 34.6994,59.2167 34.7244,59.2497 C34.7514,59.2807 34.7714,59.3177 34.7984,59.3477 C34.8024,59.3457 34.8064,59.3437 34.8104,59.3397 C35.1784,59.7717 35.6304,60.1127 36.1344,60.3587 L8.3004,67.8167 C5.5484,68.5537 2.7104,66.9157 1.9724,64.1627 C1.8294,63.6267 1.2794,63.3107 0.7444,63.4537 C0.2094,63.5977 -0.1096,64.1467 0.0344,64.6827 C1.0584,68.5037 4.9994,70.7777 8.8194,69.7547 L74.3594,52.1937 C74.8944,52.0507 75.2124,51.4997 75.0684,50.9647" id="Fill-4" fill="#383838" mask="url(#mask-4)"></path>
          </g>
        </g>
      </g>
    </g>
  </g>
</svg>
