<?xml version="1.0" encoding="UTF-8"?>
<svg xmlns="http://www.w3.org/2000/svg" id="Ebene_1" version="1.1" viewBox="0 0 120 120">
  <defs>
    <style>
      .st0 {
        fill: none;
      }

      .st1 {
        fill: #890C64;
        fill-rule: evenodd;
      }
    </style>
  </defs>
  <g id="Page-1">
    <g id="Allg-Kriterien">
      <g id="Group-5">
        <g id="Group-12">
          <rect id="Rectangle" class="st0" y="0" width="120" height="120"></rect>
        </g>
        <g id="Group-7">
          <path id="Fill-1" class="st1" d="M60.593,35.698c4.313.946,8.064-2.806,7.12-7.116-.475-2.176-2.224-3.935-4.396-4.426-4.331-.98-8.123,2.801-7.149,7.137.488,2.175,2.247,3.927,4.425,4.405"></path>
          <path id="Fill-3" class="st1" d="M84.488,55.636c-.326-1.396-1.661-2.322-3.094-2.322h-10.212l-4.52-6.419.619-3.943c.311-1.976-1.053-3.848-3.029-4.159l-4.059-.638-4.146-.652c-1.977-.31-3.849,1.053-4.16,3.029l-.348,2.22v-1.009c0-2.001-1.638-3.638-3.639-3.638h-8.262c-2.001,0-3.638,1.637-3.638,3.638v10.048c0,6.545,5.355,11.9,11.9,11.9.13,0,.252-.025.379-.038-.114,1.317.496,2.55,1.526,3.28l-3.137,11.853-8.11,10.895c-1.208,1.626-.874,3.923.752,5.132.657.49,1.426.726,2.188.726,1.12,0,2.222-.511,2.945-1.478l8.531-11.462c.28-.376.485-.802.605-1.255l2.454-9.266,6.719,6.17-.916,13.372c-.139,2.022,1.384,3.772,3.407,3.911.083.005.17.008.255.008,1.911,0,3.523-1.482,3.654-3.418l1.038-15.131c.077-1.113-.356-2.199-1.178-2.952l-6.569-6.03c.639-.545,1.104-1.297,1.243-2.185l1.612-10.249,1.8,2.556c.574.814,1.506,1.297,2.5,1.297h10.697l.202,35.059c0,.675.547,1.221,1.222,1.221s1.223-.547,1.223-1.221l-.202-35.322c1.282-.562,2.111-1.973,1.748-3.528"></path>
          <path id="Fill-5" class="st1" d="M38.39,35.968h10.758c.705,0,1.282-.577,1.282-1.282v-3.481c0-.705-.577-1.282-1.282-1.282h-10.758c-.705,0-1.282.577-1.282,1.282v3.481c0,.705.577,1.282,1.282,1.282"></path>
        </g>
      </g>
    </g>
  </g>
</svg>
