<?xml version="1.0" encoding="UTF-8"?>
<svg xmlns="http://www.w3.org/2000/svg" width="22.252" height="19.151" viewBox="0 0 22.252 19.151">
  <g id="Gruppe_5" data-name="Gruppe 5" transform="translate(0.1 0.1)">
    <g id="Gruppe_4" data-name="Gruppe 4">
      <path id="Pfad_5" data-name="Pfad 5" d="M16.195,36a5.78,5.78,0,0,0-4.748,2.5c-.156.21-.3.421-.42.625-.124-.2-.264-.414-.42-.625A5.78,5.78,0,0,0,5.858,36C2.359,36,0,38.811,0,42.256c0,4.5,4.274,7.328,10.475,12.5a.861.861,0,0,0,1.1,0c6.2-5.166,10.475-8,10.475-12.5C22.052,38.813,19.7,36,16.195,36Z" transform="translate(0 -36)" fill="#fff" stroke="#fff" stroke-width="0.2"></path>
    </g>
  </g>
</svg>
